<svg width="302" height="279" viewBox="0 0 302 279" fill="none" xmlns="http://www.w3.org/2000/svg">
<path d="M0 201.078C0 190.32 8.72323 181.598 19.4839 181.598H302V259.52C302 270.278 293.277 279 282.516 279H0V201.078Z" fill="#068072"/>
<path d="M51.5154 245.494L54.321 244.714C55.8797 244.714 56.6591 245.494 56.6591 247.052C56.6591 248.195 55.9577 249 54.5548 249.468C53.152 249.935 52.1388 250.169 51.5154 250.169C49.0214 250.169 47.125 248.611 45.8261 245.494C45.0987 243.779 44.4752 240.169 43.9556 234.663C43.488 229.156 43.0204 224.195 42.5528 219.78C42.1371 215.312 41.5916 213.078 40.9161 213.078C40.2926 213.078 39.5133 216.689 38.5781 223.909C38.3702 225.624 38.1884 227.104 38.0325 228.351C37.9286 229.546 37.7468 231.078 37.487 232.948C37.2791 234.766 37.1233 236.091 37.0194 236.922C36.6037 240.403 35.9542 242.974 35.071 244.637C34.1877 246.247 32.7589 247.052 30.7845 247.052C28.2906 247.052 26.3942 245.494 25.0952 242.377C24.3159 240.663 23.2508 237.13 21.8999 231.779C20.6009 226.377 19.38 221.52 18.2369 217.208C17.1458 212.896 16.3924 210.741 15.9768 210.741C15.3013 210.741 14.7298 215.831 14.2622 226.013C13.8465 236.143 13.6387 243.961 13.6387 249.468C13.6387 250.974 12.8594 251.727 11.3006 251.727C10.4693 251.727 9.87183 251.494 9.50813 251.026C9.14443 250.507 8.96258 249.987 8.96258 249.468C8.96258 244.481 9.14443 237.338 9.50813 228.039C9.92379 218.689 10.4174 212.922 10.9889 210.741C11.8202 207.624 13.4569 206.065 15.8988 206.065C18.3408 206.065 20.1333 207.624 21.2764 210.741C21.8999 212.403 22.8611 216.013 24.16 221.572C25.5109 227.078 26.7838 231.935 27.9788 236.143C29.1739 240.299 30.0831 242.377 30.7066 242.377C31.382 242.377 31.9276 240.403 32.3432 236.455C34.1098 222.325 35.2528 214.533 35.7724 213.078C36.24 211.624 36.8375 210.481 37.5649 209.65C38.3443 208.819 39.4613 208.403 40.9161 208.403C43.4101 208.403 45.2026 209.961 46.2937 213.078C46.7093 214.117 47.125 217.416 47.5406 222.974C47.9563 228.533 48.4759 233.676 49.0994 238.403C49.7228 243.13 50.5282 245.494 51.5154 245.494Z" fill="white"/>
<path d="M75.2169 230.689C75.2169 237.234 74.9051 244.247 74.2817 251.727C73.7101 259.26 72.9827 265.026 72.0995 269.026C71.1123 273.701 68.7742 276.039 65.0853 276.039C58.3309 276.039 54.9536 271.52 54.9536 262.481C54.9536 259.987 55.6291 257.572 56.98 255.234C58.3828 252.896 59.9415 251.727 61.6561 251.727C63.4226 251.727 64.3059 252.507 64.3059 254.065C64.3059 254.429 63.9422 254.87 63.2148 255.39C60.8248 257.052 59.6298 259.364 59.6298 262.325C59.6298 265.338 59.9935 267.597 60.7209 269.104C61.5002 270.61 62.955 271.364 65.0853 271.364C66.3322 271.364 67.1895 270.169 67.6571 267.779C68.6443 263.156 69.4497 255.831 70.0731 245.805C70.281 242.637 70.3589 240.714 70.3069 240.039C69.2158 241.598 68.4105 242.585 67.8909 243C67.4233 243.364 66.9297 243.753 66.4102 244.169C65.9426 244.533 65.4749 244.844 65.0073 245.104C64.5917 245.312 64.0461 245.572 63.3707 245.883C62.7472 246.143 62.0977 246.351 61.4223 246.507C59.8636 246.87 58.2269 247.052 56.5124 247.052C53.7586 247.052 51.7843 245.494 50.5893 242.377C48.9786 238.273 47.8615 233.078 47.238 226.792C47.1861 226.481 47.1601 226.065 47.1601 225.546C47.1601 224.299 47.8875 223.676 49.3423 223.676C50.849 223.676 51.6804 224.455 51.8362 226.013C52.1999 229.442 52.7974 233.026 53.6287 236.766C54.512 240.507 55.4732 242.377 56.5124 242.377C59.8896 242.377 62.5134 241.52 64.3838 239.805C66.2543 238.091 68.3066 235.052 70.5407 230.689C71.1642 229.13 71.9436 228.351 72.8788 228.351C74.4375 228.351 75.2169 229.13 75.2169 230.689Z" fill="white"/>
<path d="M130.621 215.883C126.049 215.883 122.308 217.546 119.398 220.87C116.489 224.195 115.034 228.247 115.034 233.026V249.39C115.034 250.948 114.255 251.727 112.696 251.727C111.137 251.727 110.358 250.948 110.358 249.39V233.026C110.358 228.403 111.527 224.247 113.865 220.559C116.203 216.87 119.191 214.273 122.828 212.767C115.034 211.416 107.76 210.741 101.006 210.741C99.4469 210.741 98.6675 209.961 98.6675 208.403C98.6675 206.845 99.4469 206.065 101.006 206.065C109.059 206.065 118.931 207.26 130.621 209.65C131.245 209.754 131.79 210.117 132.258 210.741C132.725 211.312 132.959 211.987 132.959 212.767C132.959 213.546 132.699 214.273 132.18 214.948C131.66 215.572 131.141 215.883 130.621 215.883Z" fill="white"/>
<path d="M128.008 247.208C127.956 247.208 127.566 247.416 126.839 247.831C124.968 248.87 123.591 249.39 122.708 249.39C121.149 249.39 120.37 248.611 120.37 247.052C120.37 246.065 121.149 245.26 122.708 244.637C122.968 244.533 123.591 244.221 124.579 243.701C125.566 243.182 126.137 242.87 126.293 242.766C126.085 242.299 125.982 241.598 125.982 240.663C125.982 235.987 127.618 231.987 130.891 228.663C134.165 225.338 137.152 223.676 139.854 223.676C142.556 223.676 144.686 224.325 146.245 225.624C147.803 226.87 148.583 228.403 148.583 230.221C148.583 231.987 148.167 233.52 147.336 234.818C146.505 236.117 145.206 237.39 143.439 238.637C140.997 240.403 137.438 242.455 132.762 244.792C134.84 246.299 137.724 247.052 141.413 247.052C145.102 247.052 148.739 246.455 152.324 245.26C153.415 244.896 154.038 244.714 154.194 244.714C155.753 244.714 156.532 245.494 156.532 247.052C156.532 248.195 155.753 249.026 154.194 249.546C149.83 251 145.621 251.727 141.569 251.727C135.801 251.727 131.281 250.221 128.008 247.208ZM130.658 240.663C139.49 236.247 143.907 232.922 143.907 230.689C143.907 229.13 142.608 228.351 140.01 228.351C138.451 228.351 136.503 229.598 134.165 232.091C131.827 234.533 130.658 237.39 130.658 240.663Z" fill="white"/>
<path d="M179.008 245.338C179.008 245.338 179.839 245.13 181.502 244.714C183.061 244.714 183.84 245.494 183.84 247.052C183.84 248.195 183.061 249.026 181.502 249.546C180.567 249.857 179.632 250.013 178.696 250.013C177.813 250.013 176.956 249.805 176.124 249.39C175.293 248.974 174.644 248.351 174.176 247.52C173.397 246.169 172.825 244.714 172.461 243.156L172.15 241.831C171.266 243.338 169.11 245.104 165.681 247.13C162.304 249.156 158.693 250.169 154.848 250.169C152.77 250.169 150.951 249.39 149.393 247.831C147.834 246.273 147.055 244.455 147.055 242.377C147.055 237.338 149.133 232.974 153.289 229.286C157.446 225.546 161.654 223.676 165.915 223.676C168.253 223.676 170.253 224.117 171.916 225C173.631 225.831 174.488 226.689 174.488 227.572C174.488 229.13 173.708 229.909 172.15 229.909C171.838 229.909 171.085 229.65 169.89 229.13C168.695 228.611 167.37 228.351 165.915 228.351C163.109 228.351 160.044 229.728 156.719 232.481C153.393 235.182 151.731 238.481 151.731 242.377C151.731 243.156 152.042 243.883 152.666 244.559C153.341 245.182 154.069 245.494 154.848 245.494C157.914 245.494 160.771 244.688 163.421 243.078C166.071 241.416 167.759 240.065 168.487 239.026C169.214 237.935 169.812 236.948 170.279 236.065C170.747 235.182 171.085 234.611 171.292 234.351C171.552 234.039 172.072 233.883 172.851 233.883C173.631 233.883 174.228 234.169 174.644 234.74C175.059 235.312 175.449 236.221 175.813 237.468C176.176 238.663 176.54 240.013 176.904 241.52C177.268 243.026 177.579 244.039 177.839 244.559C178.151 245.078 178.54 245.338 179.008 245.338Z" fill="white"/>
<path d="M191.514 251.727H186.838C182.474 251.727 179.304 250.714 177.33 248.688C175.356 246.611 174.368 243.987 174.368 240.818C174.368 236.195 175.875 232.195 178.889 228.818C181.902 225.39 185.331 223.676 189.176 223.676C191.358 223.676 193.333 224.117 195.099 225C196.866 225.883 197.749 226.741 197.749 227.572C197.749 229.13 196.97 229.909 195.411 229.909C194.736 229.909 193.878 229.65 192.839 229.13C191.8 228.611 190.579 228.351 189.176 228.351C186.371 228.351 183.981 229.676 182.006 232.325C180.032 234.922 179.045 237.52 179.045 240.117C179.045 242.714 179.642 244.533 180.837 245.572C182.084 246.559 184.084 247.052 186.838 247.052H191.514C195.099 247.052 198.684 246.455 202.269 245.26C203.36 244.896 203.984 244.714 204.14 244.714C205.699 244.714 206.478 245.494 206.478 247.052C206.478 248.195 205.699 249.026 204.14 249.546C199.775 251 195.567 251.727 191.514 251.727Z" fill="white"/>
<path d="M238.425 247.052C238.425 249.13 236.035 250.169 231.255 250.169C229.021 250.169 227.281 249.675 226.034 248.688C224.839 247.701 224.241 245.987 224.241 243.546C224.241 241.104 224.033 239 223.618 237.234C223.202 235.468 222.63 234.585 221.903 234.585C219.721 234.585 217.643 236.611 215.668 240.663C214.837 242.325 213.954 244.013 213.018 245.727C212.083 247.39 210.836 248.818 209.277 250.013C207.771 251.156 206.004 251.727 203.978 251.727C199.302 251.727 196.964 247.208 196.964 238.169C196.964 231.676 197.665 225.364 199.068 219.234C200.523 213.104 202.523 208.065 205.069 204.117C207.667 200.117 210.395 198.117 213.252 198.117C216.11 198.117 218.266 199.156 219.721 201.234C221.176 203.312 221.903 206.013 221.903 209.338C221.903 212.611 220.968 215.857 219.097 219.078C217.279 222.247 215.045 224.818 212.395 226.792C211.096 227.831 210.109 228.351 209.433 228.351C207.875 228.351 207.095 227.572 207.095 226.013C207.095 225.39 207.979 224.403 209.745 223.052C211.512 221.702 213.2 219.78 214.811 217.286C216.422 214.741 217.227 211.78 217.227 208.403C217.227 207 216.915 205.728 216.292 204.585C215.668 203.39 214.681 202.793 213.33 202.793C211.771 202.793 210.083 204.429 208.264 207.702C206.498 210.922 204.939 215.338 203.588 220.948C202.289 226.559 201.64 232.325 201.64 238.247C201.64 244.117 202.419 247.052 203.978 247.052C206.16 247.052 208.238 245.026 210.213 240.974C211.044 239.312 211.927 237.65 212.863 235.987C213.798 234.273 215.019 232.844 216.525 231.702C218.084 230.507 219.877 229.909 221.903 229.909C226.579 229.909 228.917 234.325 228.917 243.156C228.917 244.714 229.671 245.494 231.177 245.494C232.736 245.494 233.905 245.364 234.684 245.104C235.464 244.844 235.931 244.714 236.087 244.714C237.646 244.714 238.425 245.494 238.425 247.052Z" fill="white"/>
<path d="M230.947 247.208C230.895 247.208 230.505 247.416 229.778 247.831C227.907 248.87 226.53 249.39 225.647 249.39C224.088 249.39 223.309 248.611 223.309 247.052C223.309 246.065 224.088 245.26 225.647 244.637C225.907 244.533 226.53 244.221 227.517 243.701C228.505 243.182 229.076 242.87 229.232 242.766C229.024 242.299 228.92 241.598 228.92 240.663C228.92 235.987 230.557 231.987 233.83 228.663C237.104 225.338 240.091 223.676 242.793 223.676C245.495 223.676 247.625 224.325 249.183 225.624C250.742 226.87 251.522 228.403 251.522 230.221C251.522 231.987 251.106 233.52 250.275 234.818C249.443 236.117 248.144 237.39 246.378 238.637C243.936 240.403 240.377 242.455 235.701 244.792C237.779 246.299 240.663 247.052 244.351 247.052C248.04 247.052 251.677 246.455 255.262 245.26C256.354 244.896 256.977 244.714 257.133 244.714C258.692 244.714 259.471 245.494 259.471 247.052C259.471 248.195 258.692 249.026 257.133 249.546C252.769 251 248.56 251.727 244.507 251.727C238.74 251.727 234.22 250.221 230.947 247.208ZM233.596 240.663C242.429 236.247 246.845 232.922 246.845 230.689C246.845 229.13 245.547 228.351 242.949 228.351C241.39 228.351 239.442 229.598 237.104 232.091C234.765 234.533 233.596 237.39 233.596 240.663Z" fill="white"/>
<path d="M252.098 241.286C252.201 241.13 252.435 240.013 252.799 237.935C253.215 235.857 253.682 233.831 254.202 231.857C254.773 229.831 255.761 227.961 257.163 226.247C258.618 224.533 260.359 223.676 262.385 223.676C266.334 223.676 269.659 224.715 272.361 226.792C275.114 228.818 276.491 231.442 276.491 234.663C276.491 237.883 276.933 240.766 277.816 243.312C278.7 245.805 279.869 247.052 281.323 247.052C282.311 247.052 283.532 246.74 284.986 246.117C287.324 245.182 288.701 244.714 289.117 244.714C290.676 244.714 291.455 245.494 291.455 247.052C291.455 248.195 290.676 249.026 289.117 249.546C286.207 251 283.584 251.727 281.245 251.727C278.959 251.727 277.063 250.766 275.556 248.844C274.049 246.87 273.036 244.688 272.517 242.299C272.049 239.909 271.815 237.338 271.815 234.585C271.815 232.766 270.932 231.286 269.165 230.143C267.399 228.948 265.165 228.351 262.463 228.351C260.281 228.351 258.566 231.831 257.319 238.792C256.8 241.494 256.436 243.052 256.228 243.468C255.345 245.286 252.929 247.052 248.98 248.766C248.045 249.182 247.292 249.39 246.72 249.39C245.161 249.39 244.382 248.611 244.382 247.052C244.382 246.065 245.161 245.26 246.72 244.637C249.785 243.39 251.578 242.273 252.098 241.286Z" fill="white"/>
<path d="M64.2359 40.8823H239.728V158.861H64.2359V40.8823Z" fill="url(#paint0_linear_27_76)"/>
<path d="M236.135 43.987V154.797H67.813V43.987H236.135ZM243.305 36.8188H60.6435V161.965H243.305V36.8188Z" fill="url(#paint1_linear_27_76)"/>
<path d="M205.098 115.136C203.195 111.681 205.616 108.166 209.756 103.813C216.317 96.9037 223.456 80.878 216.819 64.6088C216.865 64.5175 215.51 61.7781 215.556 61.6867L212.831 61.5498C211.963 61.428 181.992 61.3671 151.989 61.3671C121.987 61.3671 92.0156 61.428 91.148 61.5498C91.148 61.5498 87.1142 64.5175 87.1447 64.6088C80.5232 80.878 87.647 96.8885 94.2076 103.813C98.3327 108.166 100.753 111.681 98.8654 115.136C97.0236 118.5 91.5438 118.987 91.5438 118.987C91.5438 118.987 92.8072 122.426 95.8515 124.283C98.6675 126.003 102.138 126.398 104.528 126.459C104.528 126.459 113.889 139.411 138.366 139.411H165.613C190.09 139.411 199.451 126.459 199.451 126.459C201.841 126.398 205.311 126.003 208.127 124.283C211.172 122.426 212.435 118.987 212.435 118.987C212.435 118.987 206.94 118.5 205.098 115.136Z" fill="#AB872F"/>
<path d="M151.959 139.395V125.029L195.448 121.589L199.405 126.459C199.405 126.459 190.044 139.411 165.567 139.411L151.959 139.395Z" fill="url(#paint2_radial_27_76)"/>
<path d="M199.314 120.174C192.799 110.281 207.244 106.583 207.244 106.583L207.26 106.598C204.748 109.718 203.606 112.442 205.083 115.136C206.925 118.5 212.405 118.987 212.405 118.987C212.405 118.987 204.931 125.622 199.314 120.174Z" fill="url(#paint3_radial_27_76)"/>
<path d="M216.849 64.6088C223.319 80.3606 216.515 96.5841 210.137 103.433C209.269 104.376 205.555 108.014 204.702 110.92C204.702 110.92 190.181 90.6639 185.843 78.7626C184.975 76.3579 184.168 73.8924 184.062 71.3356C183.986 69.418 184.275 67.1352 185.386 65.5067C186.741 63.513 216.073 62.9195 216.073 62.9195C216.073 62.9347 216.849 64.6088 216.849 64.6088Z" fill="url(#paint4_radial_27_76)"/>
<path d="M87.1294 64.6088C80.6754 80.3606 87.4795 96.5841 93.8422 103.417C94.7251 104.361 98.424 107.998 99.2764 110.905C99.2764 110.905 113.798 90.6487 118.136 78.7473C119.019 76.3427 119.811 73.8772 119.917 71.3204C119.993 69.4028 119.704 67.12 118.593 65.4915C117.238 63.4978 115.655 64.0305 113.357 64.0305C108.973 64.0305 89.778 62.9043 88.2863 62.9043C88.3015 62.9347 87.1294 64.6088 87.1294 64.6088Z" fill="url(#paint5_radial_27_76)"/>
<path d="M152.02 139.395V125.029L108.531 121.589L104.574 126.459C104.574 126.459 113.935 139.411 138.412 139.411L152.02 139.395Z" fill="url(#paint6_radial_27_76)"/>
<path d="M104.665 120.174C111.18 110.281 96.7344 106.583 96.7344 106.583L96.7192 106.598C99.2307 109.718 100.372 112.442 98.8959 115.136C97.054 118.5 91.5742 118.987 91.5742 118.987C91.5742 118.987 99.0481 125.622 104.665 120.174Z" fill="url(#paint7_radial_27_76)"/>
<path d="M228.844 177.382C228.844 153.838 190.272 141.526 152.187 141.526H151.974C113.707 141.572 75.1042 152.666 75.1042 177.382V182.328H228.844V177.382Z" fill="url(#paint8_linear_27_76)"/>
<path d="M138.153 134.13V149.318L151.944 152.94L165.796 149.318V134.13H138.153Z" fill="#C48E6A"/>
<path d="M72.821 177.382V182.328H122.885L124.91 141.176C96.4452 145.376 72.821 156.684 72.821 177.382Z" fill="url(#paint9_linear_27_76)"/>
<path d="M179.039 141.176L181.048 182.328H231.127V177.382C231.127 156.684 207.503 145.376 179.039 141.176Z" fill="url(#paint10_linear_27_76)"/>
<path d="M136.798 133.81L152.005 153.321L127.284 163.426L123.616 141.298L136.798 133.81Z" fill="#66C0E8"/>
<path d="M167.15 133.81L151.944 153.321L176.664 163.426L180.332 141.298L167.15 133.81Z" fill="#66C0E8"/>
<path d="M128.959 138.193C128.959 138.193 127.224 142.333 126.006 147.325C123.586 157.247 123.433 171.371 123.433 171.371C123.433 171.371 112.946 167.809 109.673 159.119C105.807 148.846 112.337 143.2 112.337 143.2C112.337 143.2 113.707 142.622 119.46 139.456C125.214 136.291 128.959 138.193 128.959 138.193Z" fill="#AF5214"/>
<path d="M174.99 138.193C174.99 138.193 176.725 142.333 177.943 147.325C180.363 157.247 180.515 171.371 180.515 171.371C180.515 171.371 191.003 167.809 194.276 159.119C198.142 148.846 191.612 143.2 191.612 143.2C191.612 143.2 190.242 142.622 184.488 139.456C178.734 136.291 174.99 138.193 174.99 138.193Z" fill="#AF5214"/>
<path d="M193.256 70.3616H110.069C101.103 70.3616 93.7661 78.1842 93.7661 87.7266C93.7661 97.269 101.103 105.092 110.069 105.092H193.256C202.221 105.092 209.558 97.269 209.558 87.7266C209.558 78.1842 202.221 70.3616 193.256 70.3616Z" fill="#C48E6A"/>
<path d="M151.655 10.4593C125.169 10.4593 100.631 38.782 100.631 79.5539C100.631 120.098 125.915 140.141 151.655 140.141C177.395 140.141 202.678 120.082 202.678 79.5387C202.678 38.782 178.156 10.4593 151.655 10.4593Z" fill="#E0BB95"/>
<path d="M127.589 90.8769C131.733 90.8769 135.093 87.4019 135.093 83.1152C135.093 78.8285 131.733 75.3535 127.589 75.3535C123.444 75.3535 120.085 78.8285 120.085 83.1152C120.085 87.4019 123.444 90.8769 127.589 90.8769Z" fill="#5D4037"/>
<path d="M175.005 90.8769C179.149 90.8769 182.509 87.4019 182.509 83.1152C182.509 78.8285 179.149 75.3535 175.005 75.3535C170.86 75.3535 167.5 78.8285 167.5 83.1152C167.5 87.4019 170.86 90.8769 175.005 90.8769Z" fill="#5D4037"/>
<path d="M138.838 69.4333C137.422 67.5613 134.165 64.8523 127.832 64.8523C121.5 64.8523 118.228 67.5765 116.827 69.4333C116.203 70.2551 116.355 71.2139 116.797 71.7922C117.192 72.3249 118.38 72.8271 119.689 72.3858C120.998 71.9444 123.555 70.6203 127.832 70.5899C132.11 70.6203 134.667 71.9444 135.976 72.3858C137.285 72.8271 138.472 72.3401 138.868 71.7922C139.294 71.2139 139.462 70.2551 138.838 69.4333Z" fill="#AB872F"/>
<path d="M186.01 69.4333C184.594 67.5613 181.337 64.8523 175.005 64.8523C168.672 64.8523 165.4 67.5765 163.999 69.4333C163.375 70.2551 163.528 71.2139 163.969 71.7922C164.365 72.3249 165.552 72.8271 166.861 72.3858C168.17 71.9444 170.727 70.6203 175.005 70.5899C179.282 70.6203 181.839 71.9444 183.148 72.3858C184.457 72.8271 185.645 72.3401 186.041 71.7922C186.482 71.2139 186.634 70.2551 186.01 69.4333Z" fill="#AB872F"/>
<path d="M157.53 97.1929C157.363 97.132 157.21 97.0863 157.043 97.0711H146.266C146.099 97.0863 145.931 97.132 145.779 97.1929C144.805 97.5886 144.272 98.593 144.729 99.6736C145.185 100.754 147.332 103.768 151.655 103.768C155.978 103.768 158.124 100.739 158.58 99.6736C159.052 98.593 158.504 97.5886 157.53 97.1929Z" fill="#C48E6A"/>
<path d="M164.639 109.49C159.798 112.366 143.891 112.366 139.051 109.49C136.265 107.831 133.419 110.373 134.576 112.899C135.717 115.38 144.379 121.148 151.883 121.148C159.387 121.148 167.942 115.38 169.083 112.899C170.24 110.373 167.424 107.831 164.639 109.49Z" fill="#6D4C41"/>
<path d="M197.381 74.1664C197.274 72.3553 197.198 72.1727 194.808 71.4117C192.936 70.8182 182.707 69.9811 175.005 70.4073C174.457 70.4377 173.924 70.4682 173.422 70.5138C166.435 71.1074 158.048 73.9229 151.746 74.0751C149.067 74.136 138.031 71.2443 130.222 70.6356C129.72 70.6051 129.218 70.5595 128.7 70.5443C120.983 70.1486 110.708 71.0465 108.836 71.6552C106.446 72.4314 106.37 72.614 106.278 74.4251C106.172 76.2362 106.476 77.7733 107.892 78.2451C109.825 78.8843 109.84 81.2889 111.134 88.1984C112.306 94.4991 115.122 99.4757 127.224 100.343C127.741 100.374 128.228 100.404 128.715 100.404C139.416 100.556 143.1 93.5098 144.318 91.1661C146.586 86.8135 145.87 80.8171 151.868 80.8019C157.85 80.7867 157.287 86.6765 159.585 91.0139C160.818 93.3424 164.41 100.419 175.02 100.267C175.538 100.267 176.07 100.237 176.618 100.191C188.704 99.2474 191.505 94.2556 192.632 87.9549C193.88 81.0302 193.895 78.6104 195.813 77.9712C197.198 77.5146 197.503 75.9775 197.381 74.1664ZM135.656 97.3603C133.799 98.2278 131.318 98.6691 128.7 98.6691C123.235 98.6539 117.177 96.7363 114.985 92.8707C111.88 87.3613 111.073 76.221 115.031 73.8925C116.766 72.8728 122.627 72.1727 128.685 72.4314C134.971 72.7054 141.471 74.0142 143.815 77.0885C147.697 82.1564 141.532 94.5904 135.656 97.3603ZM188.78 92.6424C186.604 96.5384 180.5 98.5017 175.005 98.5169C172.417 98.5321 169.966 98.106 168.14 97.2537C162.249 94.5143 156.008 82.126 159.844 77.0276C162.173 73.9229 168.703 72.5836 175.005 72.2792C181.048 71.9901 186.893 72.6597 188.613 73.6642C192.586 75.9775 191.855 87.1178 188.78 92.6424Z" fill="#212121"/>
<path d="M209.315 178.691L210.182 175.343L210.197 175.267L213.135 163.7L149.478 145.422C149.402 145.407 149.341 145.407 149.28 145.376C146.903 144.751 144.376 145.081 142.239 146.295C140.102 147.51 138.526 149.513 137.848 151.875L129.096 182.328H208.28L209.315 178.691Z" fill="url(#paint11_linear_27_76)"/>
<path d="M215.525 163.883C215.967 162.346 215.084 160.748 213.546 160.322L154.653 143.428C152.253 142.742 149.679 143.037 147.496 144.247C145.313 145.456 143.699 147.483 143.009 149.881L133.708 182.328H210.243L215.525 163.883Z" fill="#424242"/>
<path d="M214.505 176.713C215.038 174.856 213.927 172.908 212.039 172.375L148.839 154.264C141.943 152.286 140.741 157.841 138.807 164.583L133.708 182.328L212.892 182.328L214.505 176.713Z" fill="url(#paint12_linear_27_76)"/>
<path d="M150.848 143.124C149.029 143.36 147.32 144.122 145.929 145.317C144.539 146.513 143.529 148.089 143.024 149.851L133.708 182.328H139.599L150.848 143.124Z" fill="url(#paint13_linear_27_76)"/>
<path d="M152.477 148.192C152.751 148.192 153.055 148.222 153.375 148.299L210.076 164.583L209.604 166.227C191.657 161.22 157.408 151.586 150.33 149.242C150.696 148.74 151.411 148.192 152.477 148.192ZM152.477 143.124C145.596 143.124 142.156 151.601 147.727 153.686C153.862 155.969 213.074 172.436 213.074 172.436L215.479 164.035C215.951 162.422 215.19 160.778 213.79 160.382L154.668 143.398C153.907 143.215 153.177 143.124 152.477 143.124Z" fill="#424242"/>
<path d="M211.902 164.248L151.32 146.868C149.676 146.396 147.88 147.568 147.332 149.47L147.24 149.805C146.692 151.708 147.59 153.656 149.234 154.127L209.817 171.508C209.817 171.508 209.299 170.244 209.923 168.007C210.548 165.755 211.902 164.248 211.902 164.248Z" fill="url(#paint14_linear_27_76)"/>
<path d="M212.968 31.8269C209.254 26.2111 200.927 18.6776 193.454 18.1754C192.251 10.992 184.564 4.90435 177.121 2.5454C156.982 -3.8314 143.876 3.32157 136.844 7.15678C135.382 7.94817 125.93 13.1988 119.323 9.43964C115.183 7.08068 115.259 0.703887 115.259 0.703887C115.259 0.703887 102.29 5.65009 106.72 19.4234C102.26 19.606 96.4147 21.4932 93.3247 27.7482C89.641 35.2055 90.9501 41.4302 92.0156 44.4131C88.1797 47.67 83.3544 54.5946 86.6576 63.5891C89.1539 70.3616 99.0938 73.4815 99.0938 73.4815C98.3936 85.672 100.662 93.175 101.864 96.2036C102.077 96.7363 102.823 96.6906 102.96 96.1427C104.467 90.1008 109.612 69.0528 109.094 65.385C109.094 65.385 126.371 61.9607 142.841 49.8311C146.19 47.3656 149.828 45.2654 153.694 43.7282C174.381 35.4947 178.704 49.5419 178.704 49.5419C178.704 49.5419 193.043 46.7873 197.366 66.6938C198.994 74.1512 200.09 86.0982 201.019 94.4534C201.08 95.047 201.886 95.1687 202.115 94.6208C203.561 91.3031 206.453 84.7284 207.138 78.0168C207.381 75.6579 213.744 72.538 216.484 62.402C220.153 48.8875 215.662 35.8904 212.968 31.8269Z" fill="#AB872F"/>
<path d="M207.107 78.0777C207.351 75.7187 213.714 72.5988 216.454 62.4629C216.743 61.3824 216.986 60.2866 217.215 59.1908C219.437 46.8786 215.449 35.5708 212.968 31.8269C209.528 26.6372 202.16 19.8191 195.174 18.4189C194.565 18.3428 193.971 18.2667 193.408 18.2363C193.408 18.2363 193.91 21.5084 192.586 24.1108C190.881 27.4895 187.395 28.2961 187.395 28.2961C205.616 46.5285 204.322 61.7781 207.107 78.0777Z" fill="url(#paint15_radial_27_76)"/>
<path d="M141.243 4.8587C139.568 5.66531 138.107 6.47192 136.829 7.15678C135.367 7.94817 125.915 13.1988 119.308 9.43964C115.244 7.12634 115.244 0.947392 115.244 0.734324C113.372 3.12372 107.709 20.1843 124.271 21.3257C131.41 21.8127 135.809 15.5881 138.427 10.3223C139.371 8.40474 140.847 5.60443 141.243 4.8587Z" fill="url(#paint16_radial_27_76)"/>
<path d="M175.05 1.93663C186.193 4.95001 191.627 10.6267 193.438 18.1906C193.971 20.4126 194.61 41.141 155.034 17.5818C140.314 8.81566 144.333 3.33679 146.053 2.71281C152.781 0.277752 162.569 -1.442 175.05 1.93663Z" fill="url(#paint17_radial_27_76)"/>
<path d="M115.198 0.734325C115.183 0.749544 115.153 0.749544 115.107 0.779982H115.092C113.676 1.37353 102.549 6.53279 106.705 19.4234L118.547 21.3257C108.059 10.7028 115.244 0.703887 115.244 0.703887C115.244 0.703887 115.214 0.719106 115.198 0.734325Z" fill="url(#paint18_radial_27_76)"/>
<path d="M114.026 20.5952L106.705 19.4234C106.415 19.4234 105.441 19.5147 104.908 19.5908C100.783 20.1691 95.9276 22.2998 93.2943 27.7482C90.463 33.6228 90.5391 38.6603 91.3154 42.0237C91.5438 43.1499 92.0004 44.4283 92.0004 44.4283C92.0004 44.4283 95.6232 40.9888 104.254 40.7605L114.026 20.5952Z" fill="url(#paint19_radial_27_76)"/>
<path d="M91.6503 44.7175C88.0427 47.9135 83.187 55.0512 86.7641 63.9087C89.4584 70.5899 99.0785 73.4815 99.0785 73.4815C99.0785 73.512 100.996 74.0903 101.986 74.0903L104.239 40.7605C99.6265 40.7605 95.197 42.1454 92.3353 44.1391C92.3809 44.1848 91.6351 44.6718 91.6503 44.7175Z" fill="url(#paint20_radial_27_76)"/>
<defs>
<linearGradient id="paint0_linear_27_76" x1="150.984" y1="1.78154" x2="150.984" y2="279.248" gradientUnits="userSpaceOnUse">
<stop stop-color="#26A69A"/>
<stop offset="1" stop-color="#00796B"/>
</linearGradient>
<linearGradient id="paint1_linear_27_76" x1="150.997" y1="-0.0169646" x2="150.997" y2="278.986" gradientUnits="userSpaceOnUse">
<stop stop-color="#8D6E63"/>
<stop offset="0.779" stop-color="#795548"/>
</linearGradient>
<radialGradient id="paint2_radial_27_76" cx="0" cy="0" r="1" gradientUnits="userSpaceOnUse" gradientTransform="translate(141.389 -46.2097) scale(226.902 274.078)">
<stop offset="0.728" stop-color="#BFA055" stop-opacity="0"/>
<stop offset="1" stop-color="#BFA055"/>
</radialGradient>
<radialGradient id="paint3_radial_27_76" cx="0" cy="0" r="1" gradientUnits="userSpaceOnUse" gradientTransform="translate(238.26 119.665) rotate(157.91) scale(210.427 141.703)">
<stop offset="0.663" stop-color="#BFA055"/>
<stop offset="1" stop-color="#BFA055" stop-opacity="0"/>
</radialGradient>
<radialGradient id="paint4_radial_27_76" cx="0" cy="0" r="1" gradientUnits="userSpaceOnUse" gradientTransform="translate(-17.6252 119.875) rotate(-96.2648) scale(269.765 327.827)">
<stop offset="0.725" stop-color="#BFA055" stop-opacity="0"/>
<stop offset="1" stop-color="#BFA055"/>
</radialGradient>
<radialGradient id="paint5_radial_27_76" cx="0" cy="0" r="1" gradientUnits="userSpaceOnUse" gradientTransform="translate(319.671 119.958) rotate(-83.7335) scale(269.766 327.912)">
<stop offset="0.725" stop-color="#BFA055" stop-opacity="0"/>
<stop offset="1" stop-color="#BFA055"/>
</radialGradient>
<radialGradient id="paint6_radial_27_76" cx="0" cy="0" r="1" gradientUnits="userSpaceOnUse" gradientTransform="translate(160.631 -46.2097) rotate(180) scale(226.902 274.078)">
<stop offset="0.728" stop-color="#BFA055" stop-opacity="0"/>
<stop offset="1" stop-color="#BFA055"/>
</radialGradient>
<radialGradient id="paint7_radial_27_76" cx="0" cy="0" r="1" gradientUnits="userSpaceOnUse" gradientTransform="translate(63.857 119.683) rotate(22.0898) scale(210.427 141.703)">
<stop offset="0.663" stop-color="#BFA055"/>
<stop offset="1" stop-color="#BFA055" stop-opacity="0"/>
</radialGradient>
<linearGradient id="paint8_linear_27_76" x1="151" y1="51.013" x2="151" y2="206.799" gradientUnits="userSpaceOnUse">
<stop stop-color="#E1F5FE"/>
<stop offset="1" stop-color="#81D4FA"/>
</linearGradient>
<linearGradient id="paint9_linear_27_76" x1="151.026" y1="19.4392" x2="151.026" y2="268.991" gradientUnits="userSpaceOnUse">
<stop stop-color="#FFA000"/>
<stop offset="0.341" stop-color="#FF9300"/>
<stop offset="0.972" stop-color="#FF7100"/>
<stop offset="1" stop-color="#FF6F00"/>
</linearGradient>
<linearGradient id="paint10_linear_27_76" x1="150.982" y1="16.5605" x2="150.982" y2="270.673" gradientUnits="userSpaceOnUse">
<stop stop-color="#FFA000"/>
<stop offset="0.341" stop-color="#FF9300"/>
<stop offset="0.972" stop-color="#FF7100"/>
<stop offset="1" stop-color="#FF6F00"/>
</linearGradient>
<linearGradient id="paint11_linear_27_76" x1="167.377" y1="65.7576" x2="114.532" y2="172.574" gradientUnits="userSpaceOnUse">
<stop offset="0.002" stop-color="#212121" stop-opacity="0.2"/>
<stop offset="1" stop-color="#212121" stop-opacity="0.6"/>
</linearGradient>
<linearGradient id="paint12_linear_27_76" x1="169.495" y1="83.6473" x2="117.378" y2="150.232" gradientUnits="userSpaceOnUse">
<stop stop-color="#EF5350"/>
<stop offset="1" stop-color="#E53935"/>
</linearGradient>
<linearGradient id="paint13_linear_27_76" x1="171.786" y1="115.315" x2="180.613" y2="46.6049" gradientUnits="userSpaceOnUse">
<stop stop-color="#212121"/>
<stop offset="1" stop-color="#424242"/>
</linearGradient>
<linearGradient id="paint14_linear_27_76" x1="0.988173" y1="32.3646" x2="317.067" y2="69.8498" gradientUnits="userSpaceOnUse">
<stop offset="0.01" stop-color="#BDBDBD"/>
<stop offset="0.987" stop-color="#F8F8F7"/>
</linearGradient>
<radialGradient id="paint15_radial_27_76" cx="0" cy="0" r="1" gradientUnits="userSpaceOnUse" gradientTransform="translate(-79.2534 190.669) rotate(55.4965) scale(291.928 345.461)">
<stop offset="0.699" stop-color="#BFA055" stop-opacity="0"/>
<stop offset="1" stop-color="#BFA055"/>
</radialGradient>
<radialGradient id="paint16_radial_27_76" cx="0" cy="0" r="1" gradientUnits="userSpaceOnUse" gradientTransform="translate(145.814 -9.85363) rotate(34.3594) scale(161.119 213.709)">
<stop offset="0.58" stop-color="#BFA055"/>
<stop offset="1" stop-color="#BFA055" stop-opacity="0"/>
</radialGradient>
<radialGradient id="paint17_radial_27_76" cx="0" cy="0" r="1" gradientUnits="userSpaceOnUse" gradientTransform="translate(86.195 250.718) rotate(-146.255) scale(301.809 219.245)">
<stop offset="0.699" stop-color="#BFA055" stop-opacity="0"/>
<stop offset="1" stop-color="#BFA055"/>
</radialGradient>
<radialGradient id="paint18_radial_27_76" cx="0" cy="0" r="1" gradientUnits="userSpaceOnUse" gradientTransform="translate(355.616 166.059) scale(308.77 215.989)">
<stop offset="0.702" stop-color="#BFA055" stop-opacity="0"/>
<stop offset="1" stop-color="#BFA055"/>
</radialGradient>
<radialGradient id="paint19_radial_27_76" cx="0" cy="0" r="1" gradientUnits="userSpaceOnUse" gradientTransform="translate(367.02 185.117) rotate(-167.031) scale(316.154 257.924)">
<stop offset="0.66" stop-color="#BFA055" stop-opacity="0"/>
<stop offset="1" stop-color="#BFA055"/>
</radialGradient>
<radialGradient id="paint20_radial_27_76" cx="0" cy="0" r="1" gradientUnits="userSpaceOnUse" gradientTransform="translate(113.214 59.6487) rotate(7.83218) scale(25.7042 36.1125)">
<stop offset="0.598" stop-color="#BFA055" stop-opacity="0"/>
<stop offset="1" stop-color="#BFA055"/>
</radialGradient>
</defs>
</svg>
